<svg width="200" height="200" viewBox="0 0 200 200" xmlns="http://www.w3.org/2000/svg">
  <rect x="0" y="0" width="200" height="200" rx="100" fill="#0f2027"/>
  <circle cx="100" cy="95" r="72" fill="none" stroke="#2ecc8a" stroke-width="1" opacity="0.2"/>
  <path d="M100 38 C80 38, 63 55, 63 75 C63 99, 100 148, 100 148 C100 148, 137 99, 137 75 C137 55, 120 38, 100 38Z" fill="#2ecc8a"/>
  <circle cx="100" cy="75" r="14" fill="#0f2027"/>
  <line x1="48" y1="85" x2="152" y2="85" stroke="#f5c842" stroke-width="3.5" stroke-linecap="round"/>
  <circle cx="58" cy="85" r="5.5" fill="#f5c842"/>
  <circle cx="142" cy="85" r="5.5" fill="#f5c842"/>
  <line x1="63" y1="108" x2="137" y2="55" stroke="#f5c842" stroke-width="1.5" stroke-linecap="round" opacity="0.3"/>
  <circle cx="86" cy="158" r="3" fill="#2ecc8a" opacity="0.55"/>
  <circle cx="100" cy="164" r="3.5" fill="#2ecc8a" opacity="0.75"/>
  <circle cx="114" cy="158" r="3" fill="#2ecc8a" opacity="0.55"/>
  <path d="M76 174 Q88 168 100 172 Q112 176 124 170" stroke="#2ecc8a" stroke-width="1.5" fill="none" opacity="0.35" stroke-dasharray="3 4"/>
</svg>
